:FULLY-SPECIFIED
:FORCE-ALL-JOINTS-BE-3DOF
:DEGREES
272
root 8.32697 16.1618 -25.1848 20.745 68.9765 18.8025
lfemur -24.363 8.4206 -22.8609
ltibia 41.4821 -0 0
lfoot -8.02524 -21.6621 0.0314387
ltoes 61.0667 -0 0
rfemur -50.1381 -5.33321 11.5721
rtibia 83.2408 -0 0
rfoot 8.90612 2.98218 0.0650999
rtoes 0.657805 -0 0
lowerback 6.3708 -4.46091 -2.7588
upperback 1.54433 -6.11654 -1.9432
thorax -1.88701 -3.02056 0.013208
lowerneck -5.4339 -11.146 -4.48171
upperneck 1.04553 -14.7252 5.05476
head 2.01987 -7.27555 1.77657
lclavicle 2.16924e-014 5.24295e-015 0
lhumerus -45.3886 -36.1562 107.605
lradius 59.5636 -0 0
lwrist 20.3618 0 0
lhand 18.4765 14.9894 0.0215763
lfingers 7.12502 -0 0
lthumb 43.108 39.1544 0.00641218
rclavicle 2.16924e-014 5.24295e-015 0
rhumerus -53.3867 1.69129 -92.7762
rradius 43.4388 -0 0
rwrist 22.7645 0 0
rhand -14.9992 -0.922296 -1.48569
rfingers 7.12502 -0 0
rthumb 11.1245 -29.8694 -1.23261
273
root 8.38876 16.1364 -25.1456 21.6471 69.9161 20.0516
lfemur -24.0975 8.02871 -22.9509
ltibia 42.0584 -0 0
lfoot -8.25627 -22.219 0.0269465
ltoes 60.592 -0 0
rfemur -51.2878 -5.03013 12.4966
rtibia 81.7639 -0 0
rfoot 8.34865 2.50421 0.0557969
rtoes 0.743959 -0 0
lowerback 6.50701 -4.57962 -2.8044
upperback 1.70245 -6.27524 -2.03258
thorax -1.80177 -3.09985 -0.0377797
lowerneck -5.26016 -11.2273 -4.59742
upperneck 0.981395 -14.839 5.25705
head 2.00178 -7.33182 1.86268
lclavicle 2.16924e-014 5.24295e-015 0
lhumerus -45.1869 -36.2279 107.334
lradius 59.4963 -0 0
lwrist 20.4188 0 0
lhand 18.9084 15.1939 0.0184936
lfingers 7.12502 -0 0
lthumb 43.5123 39.2193 0.00549606
rclavicle 2.16924e-014 5.24295e-015 0
rhumerus -54.177 2.44559 -94.0786
rradius 44.9661 -0 0
rwrist 22.4934 0 0
rhand -18.1707 1.00067 -1.27166
rfingers 7.12502 -0 0
rthumb 8.07721 -28.2097 -1.05523
274
root 8.45054 16.111 -25.1063 22.6537 70.8483 21.4041
lfemur -23.8317 7.63723 -23.0427
ltibia 42.6346 -0 0
lfoot -8.48725 -22.7759 0.0202087
ltoes 60.1174 -0 0
rfemur -52.4318 -4.70868 13.4144
rtibia 80.287 -0 0
rfoot 7.79127 2.02636 0.0418442
rtoes 0.830113 -0 0
lowerback 6.64334 -4.69822 -2.85029
upperback 1.86088 -6.4337 -2.12243
thorax -1.71644 -3.17906 -0.0888894
lowerneck -5.08621 -11.3083 -4.71341
upperneck 0.916812 -14.9525 5.45959
head 1.9836 -7.38806 1.94881
lclavicle 2.16924e-014 5.24295e-015 0
lhumerus -44.9845 -36.2988 107.063
lradius 59.4291 -0 0
lwrist 20.4758 0 0
lhand 19.3403 15.3983 0.0138697
lfingers 7.12502 -0 0
lthumb 43.9166 39.2842 0.00412194
rclavicle 2.16924e-014 5.24295e-015 0
rhumerus -54.9848 3.18166 -95.3922
rradius 46.4933 -0 0
rwrist 22.2222 0 0
rhand -21.333 2.90868 -0.951733
rfingers 7.12502 -0 0
rthumb 5.03654 -26.5618 -0.789961
275
root 8.51233 16.0855 -25.0671 23.7797 71.7719 22.8752
lfemur -23.5654 7.24618 -23.1362
ltibia 43.2109 -0 0
lfoot -8.71815 -23.3328 0.0112262
ltoes 59.6427 -0 0
rfemur -53.57 -4.36909 14.3251
rtibia 78.8101 -0 0
rfoot 7.23403 1.54866 0.0232442
rtoes 0.916266 -0 0
lowerback 6.77979 -4.81671 -2.89648
upperback 2.0196 -6.59191 -2.21275
thorax -1.63105 -3.2582 -0.140121
lowerneck -4.91204 -11.3889 -4.82968
upperneck 0.851779 -15.0658 5.66236
head 1.96533 -7.44428 2.03497
lclavicle 2.16924e-014 5.24295e-015 0
lhumerus -44.7816 -36.369 106.792
lradius 59.3618 -0 0
lwrist 20.5327 0 0
lhand 19.7722 15.6027 0.00770503
lfingers 7.12502 -0 0
lthumb 44.3209 39.3491 0.00228989
rclavicle 2.16924e-014 5.24295e-015 0
rhumerus -55.8098 3.89896 -96.717
rradius 48.0206 -0 0
rwrist 21.9511 0 0
rhand -24.4826 4.79598 -0.527265
rfingers 7.12502 -0 0
rthumb 2.00492 -24.9304 -0.437794
